# xmcd CD database file
#
# Track frame offsets:
#	150
#	17751
#	28818
#	39827
#	54567
#	66761
#	76936
#	84947
#	96724
#	110330
#	124208
#	132089
#	144283
#	160592
#	173694
#	183966
#	199658
#	210623
#	222769
#	237423
#
# Disc length: 3335 seconds
#
# Revision: 0
# Processed by: cddbd v1.5.2PL0 Copyright (c) Steve Scherf et al.
# Submitted via: CDex 1.51
#
DISCID=0a0d0514
DTITLE=Compilation - Le Meilleur de la Country 2
DYEAR=2008
DGENRE=Country
TTITLE0=Honky tonk man Dwight Yoakam
TTITLE1=Stand up Mel McDaniel
TTITLE2=Texas sidestep Deanna Cox
TTITLE3=Jambalaya (on the bayou) Doug Kershaw
TTITLE4=I tell it like it used to be T Graham Brown
TTITLE5=The jukebox played along Gene Watson
TTITLE6=I don't knwo Hank III
TTITLE7=Good goodbye Highway 101
TTITLE8=Honky tonk stuff Jerry Lee Lewis
TTITLE9=Doin' what comes easy to a fool Junior Brown
TTITLE10=Jukebox junkie Ken Mellons
TTITLE11=My Tennessee mountain home Maria Muldaur
TTITLE12=Baby's got her blue jeans on Mel McDaniel
TTITLE13=Hell and high water T Graham Brown
TTITLE14=Love lifted me The Jordanairies
TTITLE15=Long line of love Michael Martin Murphey
TTITLE16=High lonesome Randy Travis
TTITLE17=Unchained melody Ronnie McDowell
TTITLE18=Guitars, Cadillacs Dwight Yoakam
TTITLE19=You have the right to remain silent Perfect Stranger
EXTD=YEAR: 2008
EXTT0=
EXTT1=
EXTT2=
EXTT3=
EXTT4=
EXTT5=
EXTT6=
EXTT7=
EXTT8=
EXTT9=
EXTT10=
EXTT11=
EXTT12=
EXTT13=
EXTT14=
EXTT15=
EXTT16=
EXTT17=
EXTT18=
EXTT19=
PLAYORDER=
